<svg width="45" height="48" viewBox="0 0 45 48" fill="none" xmlns="http://www.w3.org/2000/svg">
<path fill-rule="evenodd" clip-rule="evenodd" d="M30.8665 9.44385L30.251 4.68476C30.0093 2.81582 28.5929 1.19523 26.5909 0.847483C25.2743 0.618795 23.9223 0.5 22.5454 0.5C21.1432 0.5 19.7669 0.6232 18.4275 0.860188C16.4319 1.21327 15.0222 2.83092 14.7811 4.69503L14.1623 9.47973L9.71205 7.62449C7.97888 6.90195 5.87654 7.31256 4.57262 8.859C2.80551 10.9548 1.39661 13.3665 0.443286 15.9999C-0.245869 17.9035 0.450434 19.9306 1.94285 21.0704L5.77886 24L1.94282 26.9296C0.450412 28.0693 -0.245891 30.0964 0.443253 32C1.39656 34.6334 2.80546 37.0451 4.57255 39.1409C5.87648 40.6874 7.97882 41.098 9.712 40.3755L14.1621 38.5202L14.781 43.305C15.022 45.1691 16.4318 46.7867 18.4273 47.1398C19.7668 47.3768 21.1432 47.5 22.5454 47.5C23.9731 47.5 25.3739 47.3723 26.7363 47.1268C28.7253 46.7684 30.1284 45.1537 30.3688 43.2944L30.9909 38.4843L35.4173 40.3296C37.1549 41.054 39.2631 40.6392 40.5657 39.0845C42.326 36.9834 43.7275 34.5673 44.6726 31.9305C45.3539 30.0299 44.6568 28.0101 43.1683 26.8733L39.3119 23.9282L43.1275 21.0142C44.6238 19.8715 45.3193 17.8371 44.6223 15.9305C43.6608 13.3006 42.2445 10.8932 40.4706 8.80277C39.1654 7.26454 37.0689 6.85816 35.3402 7.57884L30.8665 9.44385ZM32.2133 12.6744C30.083 13.5625 27.6915 12.1817 27.3955 9.89277L26.78 5.13369C26.7254 4.7121 26.4107 4.3686 25.9919 4.29585C24.8723 4.10137 23.7207 4 22.5454 4C21.3486 4 20.1763 4.10513 19.0373 4.30666C18.6198 4.38053 18.3065 4.72347 18.2522 5.14395L17.6333 9.92865C17.3373 12.2176 14.9458 13.5983 12.8155 12.7102L8.36529 10.855C7.97441 10.6921 7.52138 10.7914 7.24839 11.1152C5.74308 12.9004 4.5446 14.9529 3.73426 17.1913C3.59009 17.5895 3.73056 18.0317 4.06717 18.2888L7.90319 21.2184C9.73742 22.6192 9.73742 25.3807 7.90319 26.7815L4.06715 29.7112C3.73054 29.9682 3.59006 30.4104 3.73424 30.8087C4.54456 33.047 5.74303 35.0995 7.24834 36.8848C7.52132 37.2085 7.97436 37.3079 8.36524 37.1449L12.8154 35.2897C14.9456 34.4016 17.3372 35.7824 17.6332 38.0713L18.252 42.856C18.3064 43.2765 18.6196 43.6194 19.0371 43.6933C20.1762 43.8949 21.3485 44 22.5454 44C23.764 44 24.9571 43.891 26.1156 43.6823C26.5318 43.6073 26.8435 43.2649 26.8977 42.8455L27.5198 38.0354C27.8159 35.7465 30.2074 34.3658 32.3377 35.2538L36.764 37.0991C37.1559 37.2625 37.6102 37.1622 37.8829 36.8367C39.3824 35.0469 40.5745 32.9908 41.3779 30.7496C41.5204 30.3519 41.3797 29.9113 41.044 29.6549L37.1876 26.7098C35.3534 25.309 35.3534 22.5474 37.1876 21.1466L41.0032 18.2326C41.3407 17.9749 41.4809 17.5312 41.3351 17.1323C40.5178 14.8969 39.313 12.8481 37.8019 11.0673C37.5286 10.7452 37.0768 10.6468 36.6869 10.8094L32.2133 12.6744ZM17.2954 24C17.2954 21.1005 19.6459 18.75 22.5454 18.75C25.4449 18.75 27.7954 21.1005 27.7954 24C27.7954 26.8995 25.4449 29.25 22.5454 29.25C19.6459 29.25 17.2954 26.8995 17.2954 24ZM22.5454 15.25C17.7129 15.25 13.7954 19.1675 13.7954 24C13.7954 28.8325 17.7129 32.75 22.5454 32.75C27.3779 32.75 31.2954 28.8325 31.2954 24C31.2954 19.1675 27.3779 15.25 22.5454 15.25Z" fill="black"/>
</svg>
